<svg xmlns="http://www.w3.org/2000/svg" viewBox="0 0 96 96" role="img" aria-labelledby="title desc">
  <title id="title">Cadillac Woods tree mark</title>
  <desc id="desc">Three simplified green trees from the Cadillac Woods brand.</desc>
  <rect width="96" height="96" rx="24" fill="#0f1a16"/>
  <path d="M28 24c-9.5 0-18 11.8-18 25.8 0 12.1 7.2 18.6 15 19.7v8h6v-8c8-1.1 15.4-7.6 15.4-19.7C46.4 35.8 37.8 24 28 24Z" fill="#08a33e"/>
  <path d="M68 24c-9.8 0-18.4 11.8-18.4 25.8 0 12.1 7.4 18.6 15.4 19.7v8h6v-8c7.8-1.1 15-7.6 15-19.7C86 35.8 77.5 24 68 24Z" fill="#08a33e"/>
  <path d="M48 9c-15.3 0-27.8 14.5-27.8 32.5 0 15.3 10.7 24.8 24.4 26.5v18h6.8V68c13.7-1.7 24.4-11.2 24.4-26.5C75.8 23.5 63.3 9 48 9Z" fill="#04a83e"/>
  <path d="M48 24v42M48 42c-8.8-2.6-14-8.2-17-15.5M48 50c9-2.9 14-8.8 17-17M48 36c6-2.3 9.5-6.2 11.6-11M48 58c-12-2.7-20-9.5-25.2-19.7M48 58c12.2-2.8 20.2-9.5 25.2-19.7M28 45v26M28 56c-6.7-1.8-11-5.8-13.5-11M28 61c5.6-1.5 9.8-4.8 12.8-9.7M68 45v26M68 56c-5.6-1.5-9.8-4.8-12.8-9.7M68 61c6.7-1.8 11-5.8 13.5-11" fill="none" stroke="#fff" stroke-width="2.8" stroke-linecap="round" stroke-linejoin="round"/>
</svg>
